<?xml version="1.0" encoding="UTF-8"?>
<svg width="388px" height="473px" viewBox="0 0 388 473" version="1.1" xmlns="http://www.w3.org/2000/svg" xmlns:xlink="http://www.w3.org/1999/xlink">
    <!-- Generator: Sketch 42 (36781) - http://www.bohemiancoding.com/sketch -->
    <title>Group 3</title>
    <desc>Created with Sketch.</desc>
    <defs>
        <rect id="path-1" x="0" y="33.4662427" width="377.935421" height="57.8224927"></rect>
        <mask id="mask-2" maskContentUnits="userSpaceOnUse" maskUnits="objectBoundingBox" x="0" y="0" width="377.935421" height="57.8224927" fill="white">
            <use xlink:href="#path-1"></use>
        </mask>
        <linearGradient x1="50%" y1="11.8372657%" x2="50%" y2="100%" id="linearGradient-3">
            <stop stop-color="#4298C6" offset="0%"></stop>
            <stop stop-color="#42A2F1" offset="100%"></stop>
        </linearGradient>
    </defs>
    <g id="Page-1" stroke="none" stroke-width="1" fill="none" fill-rule="evenodd">
        <g id="Desktop-HD" transform="translate(-222.000000, -124.000000)">
            <g id="Group-3" transform="translate(221.000000, 121.000000)">
                <g id="Group-2" transform="translate(7.180039, 234.402326)">
                    <use id="bg" stroke="#FFD259" mask="url(#mask-2)" stroke-width="2" fill="#213640" xlink:href="#path-1"></use>
                    <g id="2" transform="translate(157.079409, 0.000000)">
                        <ellipse id="Oval-8-Copy" stroke="#FFD259" stroke-width="4" fill="url(#linearGradient-3)" cx="32.2573787" cy="32.2301394" rx="31.5192236" ry="31.4926076"></ellipse>
                        <g id="Logo" transform="translate(2.157381, 2.013953)" fill-rule="nonzero">
                            <g id="bellboy-(1)">
                                <g id="Symbols">
                                    <g id="bellboy-(1)" transform="translate(0.374198, 0.000000)">
                                        <g id="Layer_1">
                                            <g id="Group">
                                                <ellipse id="Oval" fill="#213640" cx="29.9900508" cy="30.2093023" rx="29.9900508" ry="30.2093023"></ellipse>
                                                <g transform="translate(21.134721, 34.490936)" id="Shape" fill="#F1543F">
                                                    <path d="M17.6398173,1.14176891 C17.6398173,1.14176891 12.8225178,-0.808752976 8.85532997,0.570884455 L8.85532997,5.32825491 L17.167533,3.52045413 L17.6398173,1.14176891"></path>
                                                    <path d="M0.0708426396,1.14176891 C0.0708426396,1.14176891 4.88814215,-0.808752976 8.85532997,0.570884455 L8.85532997,5.32825491 L0.543126903,3.52045413 L0.0708426396,1.14176891"></path>
                                                </g>
                                                <g transform="translate(17.946802, 26.879143)" id="Shape" fill="#E2A379">
                                                    <polygon points="23.9920406 15.2711591 17.9940305 8.37297199 6.09246701 8.37297199 0.094456853 15.2711591"></polygon>
                                                    <path d="M18.1357157,8.51569308 C18.0884873,8.4681194 18.0884873,8.37297199 18.0412589,8.32539826 C18.0412589,8.32539826 17.9468021,8.84870904 17.3328325,9.60988831 C14.6880406,12.9400476 9.49291371,12.9400476 6.84812184,9.60988831 C6.23415227,8.80113531 6.13969542,8.32539826 6.13969542,8.32539826 C6.09246701,8.37297199 6.09246701,8.42054567 6.04523857,8.4681194 C6.28138072,8.08752976 6.37583757,7.61179271 6.42306598,7.18362938 L6.56475128,5.42340232 L6.56475128,5.42340232 L6.89535025,0 L17.1911472,0 L17.7106599,7.23120307 C17.7578884,7.61179271 17.8523452,7.99238235 17.9940305,8.37297199 C18.0412589,8.42054567 18.0884873,8.4681194 18.1357157,8.51569308 Z"></path>
                                                </g>
                                                <path d="M53.3681218,49.1436368 C47.8896244,55.99425 39.4357362,60.4186047 29.9900508,60.4186047 C20.5443655,60.4186047 12.0904772,55.99425 6.61197969,49.1436368 C9.11508629,44.243545 12.7044467,43.8153817 12.7044467,43.8153817 C16.1048934,42.1503023 18.7969137,40.0570592 20.6388223,38.3919794 C21.7723046,40.1997802 25.5505787,41.5318441 29.9900508,41.5318441 C34.335066,41.5318441 38.0188832,40.2949276 39.2468224,38.5347008 C41.0887308,40.1522066 43.8279799,42.1503023 47.2756548,43.8153817 C47.3228834,43.8153817 50.8650151,44.1959715 53.3681218,49.1436368 Z" id="Shape" fill="#F1543F"></path>
                                                <path d="M35.5630051,33.2064457 C33.9572386,35.1093939 32.0208731,36.3463102 29.9900508,36.3463102 C27.912,36.3463102 25.9756346,35.1093939 24.4170965,33.2064457 L24.4643249,32.5404138 L24.4643249,32.5404138 L24.8421523,27.1170115 L35.1379493,27.1170115 L35.5630051,33.2064457 Z" id="Shape" fill="#F4B382"></path>
                                                <g transform="translate(17.828731, 15.342520)" id="Shape" fill="#F4B382">
                                                    <path d="M3.23514721,0.0713605566 C2.66840609,1.30827687 2.29057868,2.83063541 2.29057868,4.68600988 C2.29057868,11.5366233 6.73005078,20.0998901 12.1613198,20.0998901 C17.5925889,20.0998901 22.0320609,11.5366233 22.0320609,4.73358361 C22.0320609,2.87820912 21.7014619,1.35585058 21.0874924,0.118934261 L3.23514721,0.118934261 L3.23514721,0.0713605566 Z"></path>
                                                    <path d="M23.7322843,8.82492219 C23.0238579,10.4424281 21.7959188,11.3463285 20.9458071,10.8705915 C20.0956955,10.3948544 20.0012386,8.72977478 20.709665,7.1598425 C21.4180914,5.54233657 22.6460305,4.6384362 23.4961422,5.11417321 C24.3462538,5.58991026 24.4407107,7.25498991 23.7322843,8.82492219 Z"></path>
                                                    <path d="M0.59035533,8.82492219 C1.29878173,10.4424281 2.52672081,11.3463285 3.37683249,10.8705915 C4.22694418,10.3948544 4.32140103,8.72977478 3.61297462,7.1598425 C2.90454822,5.54233657 1.67660914,4.6384362 0.826497461,5.11417321 C-0.0236142132,5.58991026 -0.118071066,7.25498991 0.59035533,8.82492219 Z"></path>
                                                </g>
                                                <g transform="translate(18.537158, 13.558506)" id="Shape" fill="#2B3B4E">
                                                    <path d="M2.76286295,1.37963743 L0.495898477,1.37963743 C0.212527919,2.37868522 0.0236142132,3.42530672 0.0236142132,4.51950191 C0.0236142132,6.99333456 0.826497461,9.27687236 2.19612183,11.1322468 C1.81829442,9.56231459 1.58215229,7.99238235 1.58215229,6.51759751 C1.58215229,4.37678081 2.00720812,2.71170115 2.76286295,1.37963743 Z"></path>
                                                    <path d="M20.1429239,1.37963743 C20.8985787,2.71170115 21.3236345,4.4243545 21.3236345,6.51759751 C21.3236345,7.99238235 21.1347208,9.60988831 20.709665,11.1322468 C22.0792893,9.27687236 22.8821726,6.99333456 22.8821726,4.51950191 C22.8821726,3.42530672 22.7404873,2.37868522 22.4098884,1.37963743 L20.1429239,1.37963743 L20.1429239,1.37963743 Z"></path>
                                                    <path d="M22.8821726,4.51950191 C22.8821726,5.32825491 22.7877158,6.08943415 22.6460305,6.85061343 C22.2209746,6.70789233 21.7486904,6.85061343 21.3236345,7.18362938 L21.3236345,6.51759751 L21.3236345,5.99428678 C21.2764061,3.99619117 19.2928122,2.71170115 17.4509036,3.47288042 C15.8451371,4.13891227 13.7670863,4.51950191 11.5001218,4.51950191 C9.23315735,4.51950191 7.15510661,4.13891227 5.54934009,3.47288042 C3.70743147,2.71170115 1.72383756,4.04376486 1.67660914,5.99428678 L1.67660914,6.51759751 L1.67660914,7.18362938 C1.20432487,6.85061343 0.732040611,6.70789233 0.354213198,6.85061343 C0.212527919,6.08943415 0.118071066,5.32825491 0.118071066,4.51950191 C0.118071066,3.42530672 0.259756346,2.33111152 0.59035533,1.33206373 C0.637583757,1.23691632 0.637583757,1.0941952 0.684812184,0.999047795 C3.7546599,0.380589636 7.53293402,0.0475737045 11.5473502,0.0475737045 C15.5617665,0.0475737045 19.2928122,0.380589636 22.4098884,0.999047795 C22.4571168,1.0941952 22.4571168,1.23691632 22.5043452,1.33206373 C22.6932589,2.33111152 22.8821726,3.42530672 22.8821726,4.51950191 Z"></path>
                                                </g>
                                                <g transform="translate(20.544365, 35.442410)" id="Shape" fill="#FFD05B">
                                                    <path d="M18.2301726,0.190294818 C17.0022335,2.18839041 13.176731,2.66412745 11.0042234,2.75927486 C10.1068832,2.80684856 9.4456853,3.52045413 9.4456853,4.4243545 L9.4456853,6.08943415 C14.7824975,6.08943415 17.8051168,4.4243545 18.7024569,3.09229079 L18.2301726,0.190294818 Z"></path>
                                                    <path d="M0.566741119,0.0475737045 C1.79468021,2.04566929 5.62018274,2.52140634 7.79269038,2.61655375 C8.69003047,2.66412745 9.35122845,3.37773302 9.35122845,4.2816334 L9.35122845,6.04186047 C4.01441623,5.99428678 0.991796957,4.37678081 0.094456853,2.94956968 L0.566741119,0.0475737045 Z"></path>
                                                </g>
                                                <path d="M28.4315127,41.4842701 L29.8483655,41.4842701 L28.4315127,41.4842701 Z" id="Shape" fill="#F1543F"></path>
                                                <g transform="translate(9.327614, 38.534701)" fill="#FFD05B">
                                                    <path d="M29.9192081,0 C29.9192081,0 38.4675533,2.47383263 41.2540307,6.94576084 C41.2540307,6.94576084 31.4305178,4.80494414 29.9192081,0 Z" id="Shape"></path>
                                                    <path d="M11.405665,0 C11.405665,0 2.8573198,2.47383263 0.0708426396,6.94576084 C0.0708426396,6.94576084 9.89435533,4.80494414 11.405665,0 Z" id="Shape"></path>
                                                    <ellipse id="Oval" cx="22.4098884" cy="6.37487638" rx="1.18071066" ry="1.18934261"></ellipse>
                                                    <ellipse id="Oval" cx="22.4098884" cy="10.941952" rx="1.18071066" ry="1.18934261"></ellipse>
                                                    <ellipse id="Oval" cx="22.4098884" cy="15.5566014" rx="1.18071066" ry="1.18934261"></ellipse>
                                                </g>
                                                <rect id="Rectangle-path" fill="#FF7058" x="36.6020305" y="49.4766527" width="8.64280202" height="2.28353781"></rect>
                                                <path d="M41.3721015,16.2702069 C33.9100102,14.0818165 26.022863,14.0818165 18.5607716,16.2702069 C18.9858274,13.3682109 19.3636548,10.5137887 19.7887107,7.61179271 C19.930396,6.66031861 20.6388223,5.89913937 21.5833909,5.75641824 C27.1091168,4.80494414 32.8237564,4.80494414 38.3494821,5.75641824 C39.2940506,5.89913937 40.0024771,6.66031861 40.1441623,7.61179271 C40.5692185,10.5137887 40.9942743,13.4157847 41.3721015,16.2702069 Z" id="Shape" fill="#F1543F"></path>
                                                <g transform="translate(18.891371, 7.968596)" id="Shape" fill="#FFD05B">
                                                    <path d="M22.1973604,6.01807362 C14.9714112,3.97240433 7.27317766,3.97240433 0.0472284265,6.01807362 C0.141685279,5.44718916 0.188913706,4.8763047 0.283370559,4.30542025 C7.36763452,2.35489837 14.8769543,2.35489837 21.9612183,4.30542025 C22.0084467,4.8763047 22.1029036,5.44718916 22.1973604,6.01807362 Z"></path>
                                                    <path d="M21.7723046,3.06850394 C14.7824975,1.16555576 7.41486296,1.16555576 0.425055838,3.06850394 C0.519512692,2.49761948 0.566741119,1.92673503 0.661197969,1.35585058 C7.46209137,-0.451950191 14.6880406,-0.451950191 21.488934,1.35585058 C21.5833909,1.92673503 21.6778477,2.49761948 21.7723046,3.06850394 Z"></path>
                                                </g>
                                            </g>
                                        </g>
                                    </g>
                                </g>
                            </g>
                        </g>
                    </g>
                </g>
                <text id="Local-tips" font-family="HelveticaNeue, Helvetica Neue" font-size="8" font-weight="normal" letter-spacing="1.01538467" fill="#FFFFFF">
                    <tspan x="293.403131" y="310.876744">Local tips</tspan>
                </text>
                <text id="Talk-With-Andy" font-family="HelveticaNeue, Helvetica Neue" font-size="8" font-weight="normal" letter-spacing="1.01538467" fill="#FFFFFF">
                    <tspan x="163.393346" y="310.876744">Talk With Andy</tspan>
                </text>
                <g id="map-pin" transform="translate(306.504892, 279.716279)" stroke-linecap="round" stroke-width="2" stroke="#FFFFFF" stroke-linejoin="round">
                    <g id="Group">
                        <path d="M16.1252446,8.23890063 C16.1252446,14.6469345 8.06262231,20.1395349 8.06262231,20.1395349 C8.06262231,20.1395349 0,14.6469345 0,8.23890063 C6.63528346e-08,3.68868151 3.60975901,1.22769165e-07 8.06262231,1.22769166e-07 C12.5154856,1.22769166e-07 16.1252446,3.68868151 16.1252446,8.23890063 L16.1252446,8.23890063 Z" id="Shape"></path>
                        <ellipse id="Oval" cx="8.06262231" cy="8.23890063" rx="2.68754077" ry="2.74630021"></ellipse>
                    </g>
                </g>
                <text id="Services" font-family="HelveticaNeue, Helvetica Neue" font-size="8" font-weight="normal" letter-spacing="1.01538467" fill="#FFFFFF">
                    <tspan x="64.6262231" y="311.883721">Services</tspan>
                </text>
                <g id="list" transform="translate(77.727984, 286.765116)" stroke-linecap="round" stroke-width="2" stroke="#FFFFFF">
                    <g id="Group">
                        <path d="M0,0 L13.1017613,0" id="Shape"></path>
                        <path d="M0,6.04186047 L13.1017613,6.04186047" id="Shape"></path>
                        <path d="M0,12.0837209 L13.1017613,12.0837209" id="Shape"></path>
                    </g>
                </g>
                <ellipse id="Oval-2" fill="#FFFFFF" cx="72.6888454" cy="298.848837" rx="1.00782779" ry="1.00697674"></ellipse>
                <ellipse id="Oval-2" fill="#FFFFFF" cx="72.6888454" cy="292.806977" rx="1.00782779" ry="1.00697674"></ellipse>
                <ellipse id="Oval-2" fill="#FFFFFF" cx="72.6888454" cy="286.765116" rx="1.00782779" ry="1.00697674"></ellipse>
                <path d="M73.6966732,198.053833 C59.2967738,216.192709 57.5714286,219.242446 57.5714286,225.338851 C57.5714286,231.435257 60.7908873,252.430577 60.7908873,252.430577 L56.1977499,248.811756" id="Path-3" stroke="#DADADA" stroke-width="2"></path>
                <path d="M290.86116,83.355814 C317.859209,104.531839 336.21341,132.051267 336.21341,155.680871 C336.21341,179.310474 313.537285,256.911182 313.537285,256.911182 L308.745966,241.149151" id="Path-4" stroke="#DADADA" stroke-width="2"></path>
                <path d="M171.455969,340.106977 C159.149189,355.951926 150.494504,367.295349 158.316884,370.816449 C166.139263,374.337548 171.229211,394.483721 171.229211,394.483721 L164.331127,392.839135" id="Path-5" stroke="#DADADA" stroke-width="2" transform="translate(163.393346, 367.295349) scale(1, -1) translate(-163.393346, -367.295349) "></path>
                <text id="Browse-our-services" font-family="HiraginoSans-W3, Hiragino Sans" font-size="32" font-weight="300" letter-spacing="1.35384619" fill="#FFFFFF">
                    <tspan x="0" y="142.760465">Browse our </tspan>
                    <tspan x="0" y="174.760465">services</tspan>
                </text>
                <text id="Find-interesting-loc" font-family="HiraginoSans-W3, Hiragino Sans" font-size="32" font-weight="300" letter-spacing="1.35384619">
                    <tspan x="107.618395" y="28" fill="#FFFFFF">Find interesting </tspan>
                    <tspan x="107.618395" y="60" fill="#FFFFFF">locations nearby </tspan>
                    <tspan x="402.537781" y="60" font-family="HelveticaNeue, Helvetica Neue" font-weight="normal" fill="#213640"></tspan>
                </text>
                <text id="Speak-with-Andy-anyt" font-family="HiraginoSans-W4, Hiragino Sans" font-size="32" font-weight="normal" letter-spacing="1.35384619" fill="#FFFFFF">
                    <tspan x="92" y="436.706977">Speak with Andy</tspan>
                    <tspan x="92" y="468.706977">anytime</tspan>
                </text>
            </g>
        </g>
    </g>
</svg>