<?xml version="1.0" encoding="UTF-8"?>
<svg width="412px" height="504px" viewBox="0 0 412 504" version="1.1" xmlns="http://www.w3.org/2000/svg" xmlns:xlink="http://www.w3.org/1999/xlink">
    <!-- Generator: Sketch 42 (36781) - http://www.bohemiancoding.com/sketch -->
    <title>Group 3</title>
    <desc>Created with Sketch.</desc>
    <defs>
        <rect id="path-1" x="0" y="34.0436078" width="400.998355" height="58.8200557"></rect>
        <mask id="mask-2" maskContentUnits="userSpaceOnUse" maskUnits="objectBoundingBox" x="0" y="0" width="400.998355" height="58.8200557" fill="white">
            <use xlink:href="#path-1"></use>
        </mask>
        <linearGradient x1="50%" y1="11.8372657%" x2="50%" y2="100%" id="linearGradient-3">
            <stop stop-color="#4298C6" offset="0%"></stop>
            <stop stop-color="#42A2F1" offset="100%"></stop>
        </linearGradient>
    </defs>
    <g id="Page-1" stroke="none" stroke-width="1" fill="none" fill-rule="evenodd">
        <g id="Desktop-HD" transform="translate(-223.000000, -108.000000)">
            <g id="Group-3" transform="translate(222.000000, 100.000000)">
                <g id="Group-2" transform="translate(11.298317, 255.283463)">
                    <use id="bg" stroke="#FFD259" mask="url(#mask-2)" stroke-width="2" fill="#213640" xlink:href="#path-1"></use>
                    <g id="2" transform="translate(166.664941, 0.000000)">
                        <ellipse id="Oval-8-Copy" stroke="#FFD259" stroke-width="4" fill="url(#linearGradient-3)" cx="34.2258361" cy="32.786179" rx="33.4426362" ry="32.0359232"></ellipse>
                        <g id="Logo" transform="translate(2.289032, 2.048699)" fill-rule="nonzero">
                            <g id="bellboy-(1)">
                                <g id="Symbols">
                                    <g id="bellboy-(1)" transform="translate(0.397033, 0.000000)">
                                        <g id="Layer_1">
                                            <g id="Group">
                                                <ellipse id="Oval" fill="#213640" cx="31.820148" cy="30.7304781" rx="31.820148" ry="30.7304781"></ellipse>
                                                <g transform="translate(22.424435, 35.085979)" id="Shape" fill="#F1543F">
                                                    <path d="M18.7162603,1.16146689 C18.7162603,1.16146689 13.6049924,-0.822705712 9.39571301,0.580733446 L9.39571301,5.42017882 L18.2151556,3.58118957 L18.7162603,1.16146689"></path>
                                                    <path d="M0.0751657038,1.16146689 C0.0751657038,1.16146689 5.18643359,-0.822705712 9.39571301,0.580733446 L9.39571301,5.42017882 L0.576270396,3.58118957 L0.0751657038,1.16146689"></path>
                                                </g>
                                                <g transform="translate(19.041979, 27.342866)" id="Shape" fill="#E2A379">
                                                    <polygon points="25.4561184 15.5346196 19.0920888 8.51742385 6.46425054 8.51742385 0.100220939 15.5346196"></polygon>
                                                    <path d="M19.2424202,8.66260719 C19.1923097,8.61421276 19.1923097,8.51742385 19.1421992,8.46902938 C19.1421992,8.46902938 19.0419783,9.00136839 18.3905422,9.77567966 C15.5843559,13.1632914 10.0722043,13.1632914 7.26601805,9.77567966 C6.61458193,8.95297392 6.51436099,8.46902938 6.51436099,8.46902938 C6.46425054,8.51742385 6.46425054,8.56581828 6.41414005,8.61421276 C6.66469242,8.22705712 6.76491336,7.74311258 6.8150238,7.30756252 L6.96535523,5.51696773 L6.96535523,5.51696773 L7.3161285,0 L18.2402108,0 L18.791426,7.35595695 C18.8415365,7.74311258 18.9417574,8.13026822 19.0920888,8.51742385 C19.1421992,8.56581828 19.1923097,8.61421276 19.2424202,8.66260719 Z"></path>
                                                </g>
                                                <path d="M56.6248302,49.9914708 C50.8120158,56.9602719 41.8422419,61.4609562 31.820148,61.4609562 C21.7980541,61.4609562 12.8282801,56.9602719 7.01546568,49.9914708 C9.67132056,45.0068418 13.4797162,44.5712917 13.4797162,44.5712917 C17.08767,42.8774861 19.9439668,40.74813 21.8982751,39.054324 C23.1009263,40.8933133 27.1097639,42.2483581 31.820148,42.2483581 C36.4303112,42.2483581 40.3389276,40.9901022 41.6418,39.1995077 C43.5961081,40.844919 46.5025157,42.8774861 50.1605796,44.5712917 C50.2106903,44.5712917 53.9689753,44.9584475 56.6248302,49.9914708 Z" id="Shape" fill="#F1543F"></path>
                                                <path d="M37.7331834,33.7793287 C36.0294274,35.7151068 33.9748982,36.9733626 31.820148,36.9733626 C29.6152874,36.9733626 27.5607581,35.7151068 25.9071126,33.7793287 L25.9572231,33.1018063 L25.9572231,33.1018063 L26.3581068,27.5848386 L37.2821891,27.5848386 L37.7331834,33.7793287 Z" id="Shape" fill="#F4B382"></path>
                                                <g transform="translate(18.916702, 15.607211)" id="Shape" fill="#F4B382">
                                                    <path d="M3.43256714,0.0725916804 C2.83124151,1.33084748 2.43035776,2.87946999 2.43035776,4.76685368 C2.43035776,11.735655 7.14074189,20.4466567 12.9034458,20.4466567 C18.6661498,20.4466567 23.3765339,11.735655 23.3765339,4.81524816 C23.3765339,2.92786445 23.0257606,1.37924193 22.3743245,0.120986134 L3.43256714,0.120986134 L3.43256714,0.0725916804 Z"></path>
                                                    <path d="M25.1805108,8.97717117 C24.4288538,10.6225826 23.1259816,11.5420772 22.2239931,11.0581327 C21.3220047,10.5741881 21.2217837,8.88038227 21.9734408,7.28336526 C22.7250978,5.63795386 24.02797,4.71845925 24.9299585,5.20240375 C25.8319469,5.68634829 25.9321679,7.38015417 25.1805108,8.97717117 Z"></path>
                                                    <path d="M0.626380866,8.97717117 C1.3780379,10.6225826 2.68091011,11.5420772 3.58289855,11.0581327 C4.48488701,10.5741881 4.58510795,8.88038227 3.8334509,7.28336526 C3.08179386,5.63795386 1.77892166,4.71845925 0.87693321,5.20240375 C-0.0250552346,5.68634829 -0.125276173,7.38015417 0.626380866,8.97717117 Z"></path>
                                                </g>
                                                <g transform="translate(19.668359, 13.792419)" id="Shape" fill="#2B3B4E">
                                                    <path d="M2.93146245,1.40343916 L0.526159926,1.40343916 C0.225497112,2.41972268 0.0250552346,3.48440066 0.0250552346,4.59747308 C0.0250552346,7.1139847 0.87693321,9.43691846 2.33013682,11.3243022 C1.92925307,9.72728518 1.67870072,8.13026822 1.67870072,6.63004016 C1.67870072,4.45228974 2.12969494,2.75848386 2.93146245,1.40343916 Z"></path>
                                                    <path d="M21.3721151,1.40343916 C22.1738827,2.75848386 22.6248769,4.50068418 22.6248769,6.63004016 C22.6248769,8.13026822 22.424435,9.77567966 21.9734408,11.3243022 C23.4266444,9.43691846 24.2785224,7.1139847 24.2785224,4.59747308 C24.2785224,3.48440066 24.128191,2.41972268 23.7774177,1.40343916 L21.3721151,1.40343916 L21.3721151,1.40343916 Z"></path>
                                                    <path d="M24.2785224,4.59747308 C24.2785224,5.42017882 24.1783014,6.19449005 24.02797,6.96880132 C23.5769758,6.82361797 23.0758711,6.96880132 22.6248769,7.30756252 L22.6248769,6.63004016 L22.6248769,6.09770118 C22.5747664,4.06513411 20.4701267,2.75848386 18.5158184,3.53279512 C16.8120624,4.21031745 14.6072018,4.59747308 12.2018993,4.59747308 C9.79659672,4.59747308 7.5917361,4.21031745 5.88798012,3.53279512 C3.93367184,2.75848386 1.82903213,4.11352854 1.77892166,6.09770118 L1.77892166,6.63004016 L1.77892166,7.30756252 C1.27781696,6.96880132 0.776712275,6.82361797 0.375828519,6.96880132 C0.225497112,6.19449005 0.125276173,5.42017882 0.125276173,4.59747308 C0.125276173,3.48440066 0.275607581,2.37132823 0.626380866,1.3550447 C0.676491336,1.2582558 0.676491336,1.11307243 0.726601805,1.01628353 C3.98378231,0.38715563 7.99261985,0.0483944537 12.2520097,0.0483944537 C16.5113996,0.0483944537 20.4701267,0.38715563 23.7774177,1.01628353 C23.8275281,1.11307243 23.8275281,1.2582558 23.8776386,1.3550447 C24.0780805,2.37132823 24.2785224,3.48440066 24.2785224,4.59747308 Z"></path>
                                                </g>
                                                <g transform="translate(21.798054, 36.053868)" id="Shape" fill="#FFD05B">
                                                    <path d="M19.3426411,0.193577815 C18.0397689,2.22614487 13.9808209,2.7100894 11.6757393,2.80687831 C10.7236404,2.85527277 10.0220939,3.58118957 10.0220939,4.50068418 L10.0220939,6.19449005 C15.6845769,6.19449005 18.8916469,4.50068418 19.8437458,3.14563949 L19.3426411,0.193577815 Z"></path>
                                                    <path d="M0.601325633,0.0483944537 C1.90419783,2.08096151 5.96314584,2.56490605 8.26822745,2.66169495 C9.22032635,2.7100894 9.92187293,3.43600621 9.92187293,4.35550083 L9.92187293,6.14609562 C4.25938987,6.09770118 1.05231986,4.45228974 0.100220939,3.00045613 L0.601325633,0.0483944537 Z"></path>
                                                </g>
                                                <path d="M30.1665025,42.1999635 L31.6698166,42.1999635 L30.1665025,42.1999635 Z" id="Shape" fill="#F1543F"></path>
                                                <g transform="translate(9.896818, 39.199508)" fill="#FFD05B">
                                                    <path d="M31.7449823,0 C31.7449823,0 40.8149772,2.51651159 43.7714951,7.06559023 C43.7714951,7.06559023 33.3485173,4.88783981 31.7449823,0 Z" id="Shape"></path>
                                                    <path d="M12.1016783,0 C12.1016783,0 3.03168339,2.51651159 0.0751657038,7.06559023 C0.0751657038,7.06559023 10.4981433,4.88783981 12.1016783,0 Z" id="Shape"></path>
                                                    <ellipse id="Oval" cx="23.7774177" cy="6.48485678" rx="1.25276173" ry="1.20986134"></ellipse>
                                                    <ellipse id="Oval" cx="23.7774177" cy="11.1307243" rx="1.25276173" ry="1.20986134"></ellipse>
                                                    <ellipse id="Oval" cx="23.7774177" cy="15.8249864" rx="1.25276173" ry="1.20986134"></ellipse>
                                                </g>
                                                <rect id="Rectangle-path" fill="#FF7058" x="38.8356137" y="50.3302319" width="9.17021586" height="2.32293378"></rect>
                                                <path d="M43.896771,16.5509032 C35.979317,14.3247583 27.6108686,14.3247583 19.6934144,16.5509032 C20.1444086,13.5988415 20.5452924,10.6951743 20.9962866,7.74311258 C21.146618,6.7752235 21.8982751,6.00091227 22.9004845,5.85572889 C28.7634094,4.88783981 34.8267761,4.88783981 40.6897009,5.85572889 C41.6919103,6.00091227 42.4435674,6.7752235 42.5938987,7.74311258 C43.0448933,10.6951743 43.4958875,13.6472359 43.896771,16.5509032 Z" id="Shape" fill="#F1543F"></path>
                                                <g transform="translate(20.044188, 8.106071)" id="Shape" fill="#FFD05B">
                                                    <path d="M23.5519205,6.1218984 C15.8850188,4.04093689 7.71701226,4.04093689 0.0501104693,6.1218984 C0.150331408,5.54116495 0.200441877,4.9604315 0.300662816,4.37969805 C7.8172332,2.39552546 15.7847978,2.39552546 23.3013682,4.37969805 C23.3514787,4.9604315 23.4516996,5.54116495 23.5519205,6.1218984 Z"></path>
                                                    <path d="M23.1009263,3.12144226 C15.6845769,1.18566412 7.86734369,1.18566412 0.450994224,3.12144226 C0.551215163,2.54070882 0.601325633,1.95997537 0.701546568,1.37924193 C7.91745414,-0.459747308 15.5843559,-0.459747308 22.8002635,1.37924193 C22.9004845,1.95997537 23.0007054,2.54070882 23.1009263,3.12144226 Z"></path>
                                                </g>
                                            </g>
                                        </g>
                                    </g>
                                </g>
                            </g>
                        </g>
                    </g>
                </g>
                <text id="Local-tips" font-family="HelveticaNeue, Helvetica Neue" font-size="8" font-weight="normal" letter-spacing="1.01538467" fill="#FFFFFF">
                    <tspan x="314.987738" y="332.939213">Local tips</tspan>
                </text>
                <text id="Talk-With-Andy" font-family="HelveticaNeue, Helvetica Neue" font-size="8" font-weight="normal" letter-spacing="1.01538467" fill="#FFFFFF">
                    <tspan x="180.044304" y="334.939213">Talk With Andy</tspan>
                </text>
                <g id="map-pin" transform="translate(328.889014, 301.379180)" stroke-linecap="round" stroke="#FFFFFF" stroke-width="2" stroke-linejoin="round">
                    <g id="Group" transform="translate(0.000000, 0.000000)">
                        <path d="M17.1092631,8.38103948 C17.1092631,14.8996257 8.55463156,20.4869854 8.55463156,20.4869854 C8.55463156,20.4869854 0,14.8996257 0,8.38103948 C7.04019153e-08,3.75231923 3.83003906,1.24887202e-07 8.55463156,1.24887203e-07 C13.2792241,1.24887203e-07 17.1092631,3.75231923 17.1092631,8.38103948 L17.1092631,8.38103948 Z" id="Shape"></path>
                        <ellipse id="Oval" cx="8.55463156" cy="8.38103948" rx="2.85154385" ry="2.79367983"></ellipse>
                    </g>
                </g>
                <text id="Services" font-family="HelveticaNeue, Helvetica Neue" font-size="8" font-weight="normal" letter-spacing="1.01538467" fill="#FFFFFF">
                    <tspan x="72.2500673" y="333.963562">Services</tspan>
                </text>
                <g id="list" transform="translate(86.151344, 308.549625)" stroke-linecap="round" stroke-width="2" stroke="#FFFFFF">
                    <g id="Group">
                        <path d="M0,0 L13.9012763,0" id="Shape"></path>
                        <path d="M0,6.14609562 L13.9012763,6.14609562" id="Shape"></path>
                        <path d="M0,12.2921912 L13.9012763,12.2921912" id="Shape"></path>
                    </g>
                </g>
                <ellipse id="Oval-2" fill="#FFFFFF" cx="80.8046988" cy="320.841816" rx="1.06932895" ry="1.02434927"></ellipse>
                <ellipse id="Oval-2" fill="#FFFFFF" cx="80.8046988" cy="314.69572" rx="1.06932895" ry="1.02434927"></ellipse>
                <ellipse id="Oval-2" fill="#FFFFFF" cx="80.8046988" cy="308.549625" rx="1.06932895" ry="1.02434927"></ellipse>
                <path d="M74.0879971,218.226422 C59.4125016,236.718883 57.6541353,239.828069 57.6541353,246.043313 C57.6541353,252.258556 60.9352105,273.663142 60.9352105,273.663142 L56.2541662,269.973779" id="Path-3" stroke="#FFD259" stroke-width="2"></path>
                <path d="M313.408742,97.2925745 C340.9235,118.881388 359.628978,146.937257 359.628978,171.027476 C359.628978,195.117696 336.51886,274.231088 336.51886,274.231088 L331.635841,258.161805" id="Path-4" stroke="#FFD259" stroke-width="2"></path>
                <path d="M173.718284,363.048633 C161.175968,379.202451 152.355643,390.766993 160.327733,394.35673 C168.299823,397.946467 173.487186,418.485353 173.487186,418.485353 L166.457081,416.808709" id="Path-5" stroke="#FFD259" stroke-width="2" transform="translate(165.501353, 390.766993) scale(1, -1) translate(-165.501353, -390.766993) "></path>
                <text id="Browse-our-services" font-family="SourceSansPro-Light, Source Sans Pro" font-size="34" font-weight="300" letter-spacing="1.43846154">
                    <tspan x="0" y="152.280702" fill="#FFD259">Browse our </tspan>
                    <tspan x="0" y="194.280702" fill="#FFD259">services</tspan>
                    <tspan x="120.817692" y="194.280702" font-family="HiraginoSans-W3, Hiragino Sans" letter-spacing="1.52836537" fill="#FFFFFF"></tspan>
                </text>
                <text id="Find-interesting-loc" font-family="SourceSansPro-Light, Source Sans Pro" font-size="34" font-weight="300" letter-spacing="1.43846154">
                    <tspan x="124.965159" y="33" fill="#FFD259">Find interesting </tspan>
                    <tspan x="124.965159" y="75" fill="#FFD259">locations nearby</tspan>
                    <tspan x="376.392544" y="75" letter-spacing="1.52836537" fill="#FFFFFF"> </tspan>
                    <tspan x="384.686909" y="75" font-family="HelveticaNeue, Helvetica Neue" font-weight="normal" letter-spacing="1.52836537" fill="#213640"></tspan>
                </text>
                <text id="Speak-with-Andy-anyt" font-family="SourceSansPro-Light, Source Sans Pro" font-size="34" font-weight="300" letter-spacing="1.43846154">
                    <tspan x="105.990431" y="461.907892" fill="#FFD259">Speak with Andy</tspan>
                    <tspan x="105.990431" y="503.907892" fill="#FFD259">anytime</tspan>
                    <tspan x="228.361661" y="503.907892" font-family="HiraginoSans-W4, Hiragino Sans" font-weight="normal" letter-spacing="1.52836537" fill="#FFFFFF"></tspan>
                </text>
            </g>
        </g>
    </g>
</svg>