<?xml version="1.0" encoding="UTF-8"?>
<svg width="158px" height="158px" viewBox="0 0 158 158" version="1.1" xmlns="http://www.w3.org/2000/svg" xmlns:xlink="http://www.w3.org/1999/xlink">
    <!-- Generator: Sketch 42 (36781) - http://www.bohemiancoding.com/sketch -->
    <title>Group 6</title>
    <desc>Created with Sketch.</desc>
    <defs></defs>
    <g id="Page-1" stroke="none" stroke-width="1" fill="none" fill-rule="evenodd">
        <g id="Group-6" transform="translate(-1.000000, 0.000000)" fill-rule="nonzero">
            <circle id="Oval" fill="#213640" cx="79.985715" cy="79" r="79"></circle>
            <g id="Group" transform="translate(56.658943, 90.196850)" fill="#830707">
                <path d="M46.4669291,2.98582677 C46.4669291,2.98582677 33.7771654,-2.11496063 23.3267717,1.49291339 L23.3267717,13.9338583 L45.2228346,9.20629921 L46.4669291,2.98582677" id="Shape"></path>
                <path d="M0.186614173,2.98582677 C0.186614173,2.98582677 12.876378,-2.11496063 23.3267717,1.49291339 L23.3267717,13.9338583 L1.43070866,9.20629921 L0.186614173,2.98582677" id="Shape"></path>
            </g>
            <g id="Group" transform="translate(48.261306, 70.291339)" fill="#E2A379">
                <polygon id="Shape" points="63.2 39.9354331 47.4 21.896063 16.0488189 21.896063 0.248818898 39.9354331"></polygon>
                <path d="M47.7732283,22.2692913 C47.6488189,22.1448819 47.6488189,21.896063 47.5244094,21.7716535 C47.5244094,21.7716535 47.2755906,23.1401575 45.6582677,25.1307087 C38.6913386,33.8393701 25.0062992,33.8393701 18.0393701,25.1307087 C16.4220472,23.015748 16.1732283,21.7716535 16.1732283,21.7716535 C16.0488189,21.896063 16.0488189,22.0204724 15.9244094,22.1448819 C16.5464567,21.1496063 16.7952756,19.9055118 16.919685,18.7858268 L17.2929134,14.1826772 L17.2929134,14.1826772 L18.1637795,0 L45.2850394,0 L46.6535433,18.9102362 C46.7779528,19.9055118 47.0267717,20.9007874 47.4,21.896063 C47.5244094,22.0204724 47.6488189,22.1448819 47.7732283,22.2692913 Z" id="Shape"></path>
            </g>
            <path d="M141.568392,128.514961 C127.136896,146.429921 104.867605,158 79.985715,158 C55.1038252,158 32.8345339,146.429921 18.4030378,128.514961 C24.9967386,115.700787 34.4518567,114.581102 34.4518567,114.581102 C43.409337,110.226772 50.5006756,104.752756 55.3526441,100.398425 C58.3384709,105.125984 68.2912268,108.609449 79.985715,108.609449 C91.4313843,108.609449 101.135321,105.374803 104.369967,100.771654 C109.221935,105.001575 116.437684,110.226772 125.519573,114.581102 C125.643983,114.581102 134.974691,115.576378 141.568392,128.514961 Z" id="Shape" fill="#E04242"></path>
            <path d="M94.66603,86.8377953 C90.4361087,91.8141732 85.3353213,95.0488189 79.985715,95.0488189 C74.5116993,95.0488189 69.4109119,91.8141732 65.3054,86.8377953 L65.4298095,85.096063 L65.4298095,85.096063 L66.4250851,70.9133858 L93.5463449,70.9133858 L94.66603,86.8377953 Z" id="Shape" fill="#F4B382"></path>
            <g id="Group" transform="translate(47.950282, 40.122047)" fill="#F4B382">
                <path d="M8.52204724,0.186614173 C7.02913386,3.42125984 6.03385827,7.4023622 6.03385827,12.2543307 C6.03385827,30.1692913 17.7283465,52.5629921 32.0354331,52.5629921 C46.3425197,52.5629921 58.0370079,30.1692913 58.0370079,12.3787402 C58.0370079,7.52677165 57.1661417,3.54566929 55.5488189,0.311023622 L8.52204724,0.311023622 L8.52204724,0.186614173 Z" id="Shape"></path>
                <path d="M62.515748,23.0779528 C60.6496063,27.307874 57.4149606,29.6716535 55.1755906,28.4275591 C52.9362205,27.1834646 52.6874016,22.8291339 54.5535433,18.723622 C56.419685,14.4937008 59.6543307,12.1299213 61.8937008,13.3740157 C64.1330709,14.6181102 64.3818898,18.9724409 62.515748,23.0779528 Z" id="Shape"></path>
                <path d="M1.55511811,23.0779528 C3.42125984,27.307874 6.65590551,29.6716535 8.89527559,28.4275591 C11.1346457,27.1834646 11.3834646,22.8291339 9.51732283,18.723622 C7.6511811,14.4937008 4.41653543,12.1299213 2.17716535,13.3740157 C-0.0622047244,14.6181102 -0.311023622,18.9724409 1.55511811,23.0779528 Z" id="Shape"></path>
            </g>
            <g id="Group" transform="translate(49.816424, 35.456693)" fill="#2B3B4E">
                <path d="M7.27795276,3.60787402 L1.30629921,3.60787402 C0.55984252,6.22047244 0.0622047244,8.95748031 0.0622047244,11.8188976 C0.0622047244,18.288189 2.17716535,24.2598425 5.78503937,29.111811 C4.78976378,25.0062992 4.16771654,20.9007874 4.16771654,17.0440945 C4.16771654,11.4456693 5.28740157,7.09133858 7.27795276,3.60787402 Z" id="Shape"></path>
                <path d="M53.0606299,3.60787402 C55.0511811,7.09133858 56.1708661,11.5700787 56.1708661,17.0440945 C56.1708661,20.9007874 55.6732283,25.1307087 54.5535433,29.111811 C58.1614173,24.2598425 60.276378,18.288189 60.276378,11.8188976 C60.276378,8.95748031 59.9031496,6.22047244 59.0322835,3.60787402 L53.0606299,3.60787402 L53.0606299,3.60787402 Z" id="Shape"></path>
                <path d="M60.276378,11.8188976 C60.276378,13.9338583 60.0275591,15.9244094 59.6543307,17.9149606 C58.5346457,17.5417323 57.2905512,17.9149606 56.1708661,18.7858268 L56.1708661,17.0440945 L56.1708661,15.6755906 C56.0464567,10.4503937 50.8212598,7.09133858 45.9692913,9.08188976 C41.7393701,10.823622 36.2653543,11.8188976 30.2937008,11.8188976 C24.3220472,11.8188976 18.8480315,10.823622 14.6181102,9.08188976 C9.76614173,7.09133858 4.54094488,10.5748031 4.41653543,15.6755906 L4.41653543,17.0440945 L4.41653543,18.7858268 C3.17244094,17.9149606 1.92834646,17.5417323 0.933070866,17.9149606 C0.55984252,15.9244094 0.311023622,13.9338583 0.311023622,11.8188976 C0.311023622,8.95748031 0.684251969,6.09606299 1.55511811,3.48346457 C1.67952756,3.23464567 1.67952756,2.86141732 1.80393701,2.61259843 C9.89055118,0.995275591 19.8433071,0.124409449 30.4181102,0.124409449 C40.9929134,0.124409449 50.8212598,0.995275591 59.0322835,2.61259843 C59.1566929,2.86141732 59.1566929,3.23464567 59.2811024,3.48346457 C59.7787402,6.09606299 60.276378,8.95748031 60.276378,11.8188976 Z" id="Shape"></path>
            </g>
            <g id="Group" transform="translate(55.103825, 92.685039)" fill="#FFD05B">
                <path d="M48.0220472,0.497637795 C44.7874016,5.72283465 34.7102362,6.96692913 28.9874016,7.21574803 C26.623622,7.34015748 24.8818898,9.20629921 24.8818898,11.5700787 L24.8818898,15.9244094 C38.9401575,15.9244094 46.9023622,11.5700787 49.2661417,8.08661417 L48.0220472,0.497637795 Z" id="Shape"></path>
                <path d="M1.49291339,0.124409449 C4.72755906,5.3496063 14.8047244,6.59370079 20.5275591,6.84251969 C22.8913386,6.96692913 24.6330709,8.83307087 24.6330709,11.1968504 L24.6330709,15.8 C10.5748031,15.6755906 2.61259843,11.4456693 0.248818898,7.71338583 L1.49291339,0.124409449 Z" id="Shape"></path>
            </g>
            <path d="M75.8802032,108.485039 L79.6124867,108.485039 L75.8802032,108.485039 Z" id="Shape" fill="#F1543F"></path>
            <g id="Group" transform="translate(25.556581, 100.771654)" fill="#FFD05B">
                <path d="M78.8133858,0 C78.8133858,0 101.331496,6.46929134 108.671654,18.1637795 C108.671654,18.1637795 82.7944882,12.5653543 78.8133858,0 Z" id="Shape"></path>
                <path d="M30.0448819,0 C30.0448819,0 7.52677165,6.46929134 0.186614173,18.1637795 C0.186614173,18.1637795 26.0637795,12.5653543 30.0448819,0 Z" id="Shape"></path>
                <ellipse id="Oval" cx="59.0322835" cy="16.6708661" rx="3.11023622" ry="3.11023622"></ellipse>
                <ellipse id="Oval" cx="59.0322835" cy="28.6141732" rx="3.11023622" ry="3.11023622"></ellipse>
                <ellipse id="Oval" cx="59.0322835" cy="40.6818898" rx="3.11023622" ry="3.11023622"></ellipse>
            </g>
            <rect id="Rectangle-path" fill="#D23535" x="97.4030378" y="129.385827" width="22.7669291" height="5.97165354"></rect>
            <path d="M109.968392,42.5480315 C90.3116993,36.8251969 69.5353213,36.8251969 49.8786284,42.5480315 C50.9983134,34.9590551 51.993589,27.4944882 53.1132741,19.9055118 C53.4865024,17.4173228 55.3526441,15.4267717 57.8408331,15.0535433 C72.3967386,12.5653543 87.4502819,12.5653543 102.006187,15.0535433 C104.494376,15.4267717 106.360518,17.4173228 106.733746,19.9055118 C107.853432,27.4944882 108.973117,35.0834646 109.968392,42.5480315 Z" id="Shape" fill="#E04242"></path>
            <g id="Group" transform="translate(50.749495, 20.838583)" fill="#FFD05B">
                <path d="M58.4724409,15.7377953 C39.4377953,10.388189 19.1590551,10.388189 0.124409449,15.7377953 C0.373228346,14.2448819 0.497637795,12.7519685 0.746456693,11.2590551 C19.407874,6.15826772 39.1889764,6.15826772 57.8503937,11.2590551 C57.9748031,12.7519685 58.223622,14.2448819 58.4724409,15.7377953 Z" id="Shape"></path>
                <path d="M57.3527559,8.02440945 C38.9401575,3.0480315 19.5322835,3.0480315 1.11968504,8.02440945 C1.36850394,6.53149606 1.49291339,5.03858268 1.74173228,3.54566929 C19.6566929,-1.18188976 38.6913386,-1.18188976 56.6062992,3.54566929 C56.8551181,5.03858268 57.103937,6.53149606 57.3527559,8.02440945 Z" id="Shape"></path>
            </g>
        </g>
    </g>
</svg>