<?xml version="1.0" encoding="UTF-8"?>
<svg width="375px" height="431px" viewBox="0 0 375 431" version="1.1" xmlns="http://www.w3.org/2000/svg" xmlns:xlink="http://www.w3.org/1999/xlink">
    <!-- Generator: Sketch 42 (36781) - http://www.bohemiancoding.com/sketch -->
    <title>Group 3</title>
    <desc>Created with Sketch.</desc>
    <defs>
        <rect id="path-1" x="0" y="33.234375" width="375" height="57.421875"></rect>
        <mask id="mask-2" maskContentUnits="userSpaceOnUse" maskUnits="objectBoundingBox" x="0" y="0" width="375" height="57.421875" fill="white">
            <use xlink:href="#path-1"></use>
        </mask>
        <linearGradient x1="50%" y1="11.8372657%" x2="50%" y2="100%" id="linearGradient-3">
            <stop stop-color="#4298C6" offset="0%"></stop>
            <stop stop-color="#42A2F1" offset="100%"></stop>
        </linearGradient>
    </defs>
    <g id="Page-1" stroke="none" stroke-width="1" fill="none" fill-rule="evenodd">
        <g id="iPhone-7-Copy" transform="translate(0.000000, -101.000000)">
            <g id="Group-3" transform="translate(0.000000, 98.000000)">
                <g id="Group-2" transform="translate(0.000000, 205.000000)">
                    <use id="bg" stroke="#FFD259" mask="url(#mask-2)" stroke-width="2" fill="#213640" xlink:href="#path-1"></use>
                    <g id="2" transform="translate(155.859375, 0.000000)">
                        <circle id="Oval-8-Copy" stroke="#FFD259" stroke-width="4" fill="url(#linearGradient-3)" cx="32.0068359" cy="32.0068359" r="31.2744141"></circle>
                        <g id="Logo" transform="translate(2.140625, 2.000000)" fill-rule="nonzero">
                            <g id="bellboy-(1)">
                                <g id="Symbols">
                                    <g id="bellboy-(1)" transform="translate(0.371292, 0.000000)">
                                        <g id="Layer_1">
                                            <g id="Group">
                                                <ellipse id="Oval" fill="#213640" cx="29.7571184" cy="30" rx="29.7571184" ry="30"></ellipse>
                                                <g transform="translate(20.970568, 34.251968)" id="Shape" fill="#F1543F">
                                                    <path d="M17.502809,1.13385827 C17.502809,1.13385827 12.7229254,-0.803149606 8.78655071,0.566929135 L8.78655071,5.29133859 L17.0341929,3.49606299 L17.502809,1.13385827"></path>
                                                    <path d="M0.0702924055,1.13385827 C0.0702924055,1.13385827 4.850176,-0.803149606 8.78655071,0.566929135 L8.78655071,5.29133859 L0.538908442,3.49606299 L0.0702924055,1.13385827"></path>
                                                </g>
                                                <g transform="translate(17.807410, 26.692914)" id="Shape" fill="#E2A379">
                                                    <polygon points="23.8056947 15.1653543 17.854271 8.31496063 6.04514688 8.31496063 0.0937232075 15.1653543"></polygon>
                                                    <path d="M17.9948558,8.4566929 C17.9479942,8.40944882 17.9479942,8.31496063 17.9011326,8.26771652 C17.9011326,8.26771652 17.8074094,8.78740158 17.1982086,9.5433071 C14.5739588,12.8503937 9.41918234,12.8503937 6.79493255,9.5433071 C6.18573167,8.74015747 6.09200846,8.26771652 6.09200846,8.26771652 C6.04514688,8.31496063 6.04514688,8.36220471 5.99828526,8.40944882 C6.2325933,8.03149606 6.3263165,7.55905511 6.37317809,7.13385828 L6.51376292,5.38582678 L6.51376292,5.38582678 L6.84179413,0 L17.0576238,0 L17.5731014,7.18110235 C17.619963,7.55905511 17.7136862,7.93700787 17.854271,8.31496063 C17.9011326,8.36220471 17.9479942,8.40944882 17.9948558,8.4566929 Z"></path>
                                                </g>
                                                <path d="M52.9536121,48.8031497 C47.5176661,55.6062991 39.1294392,60 29.7571184,60 C20.3847976,60 11.9965705,55.6062991 6.56062451,48.8031497 C9.04428951,43.9370077 12.6057714,43.5118109 12.6057714,43.5118109 C15.9798068,41.8582678 18.6509183,39.7795276 20.4785208,38.1259842 C21.6031993,39.9212597 25.3521276,41.2440946 29.7571184,41.2440946 C34.0683859,41.2440946 37.7235909,40.015748 38.9419927,38.2677167 C40.769595,39.8740158 43.4875684,41.8582678 46.9084652,43.5118109 C46.955327,43.5118109 50.469947,43.8897638 52.9536121,48.8031497 Z" id="Shape" fill="#F1543F"></path>
                                                <path d="M35.2867876,32.976378 C33.6934931,34.8661417 31.7721673,36.0944882 29.7571184,36.0944882 C27.6952078,36.0944882 25.7738821,34.8661417 24.2274491,32.976378 L24.2743107,32.3149606 L24.2743107,32.3149606 L24.6492036,26.9291338 L34.8650331,26.9291338 L35.2867876,32.976378 Z" id="Shape" fill="#F4B382"></path>
                                                <g transform="translate(17.690255, 15.236220)" id="Shape" fill="#F4B382">
                                                    <path d="M3.21001985,0.0708661416 C2.64768061,1.2992126 2.27278778,2.81102362 2.27278778,4.6535433 C2.27278778,11.4566929 6.67777854,19.9606299 12.066863,19.9606299 C17.4559474,19.9606299 21.8609381,11.4566929 21.8609381,4.70078742 C21.8609381,2.85826772 21.5329069,1.34645669 20.9237061,0.118110236 L3.21001985,0.118110236 L3.21001985,0.0708661416 Z"></path>
                                                    <path d="M23.5479559,8.76377954 C22.8450318,10.3700787 21.6266301,11.2677165 20.7831213,10.7952756 C19.9396124,10.3228347 19.8458892,8.66929135 20.5488132,7.1102362 C21.2517373,5.50393701 22.470139,4.60629923 23.3136478,5.07874014 C24.1571567,5.55118109 24.2508799,7.20472439 23.5479559,8.76377954 Z"></path>
                                                    <path d="M0.585770046,8.76377954 C1.2886941,10.3700787 2.5070958,11.2677165 3.35060466,10.7952756 C4.19411354,10.3228347 4.28783675,8.66929135 3.58491268,7.1102362 C2.88198863,5.50393701 1.66358693,4.60629923 0.820078063,5.07874014 C-0.0234308018,5.55118109 -0.117154009,7.20472439 0.585770046,8.76377954 Z"></path>
                                                </g>
                                                <g transform="translate(18.393180, 13.464567)" id="Shape" fill="#2B3B4E">
                                                    <path d="M2.74140382,1.37007874 L0.492046838,1.37007874 C0.210877217,2.36220472 0.0234308018,3.4015748 0.0234308018,4.48818896 C0.0234308018,6.9448819 0.820078063,9.21259842 2.17906457,11.0551181 C1.80417174,9.49606299 1.56986373,7.93700787 1.56986373,6.47244095 C1.56986373,4.3464567 1.99161816,2.69291338 2.74140382,1.37007874 Z"></path>
                                                    <path d="M19.986474,1.37007874 C20.7362596,2.69291338 21.1580141,4.39370077 21.1580141,6.47244095 C21.1580141,7.93700787 20.9705676,9.5433071 20.5488132,11.0551181 C21.9077997,9.21259842 22.704447,6.9448819 22.704447,4.48818896 C22.704447,3.4015748 22.5638622,2.36220472 22.235831,1.37007874 L19.986474,1.37007874 L19.986474,1.37007874 Z"></path>
                                                    <path d="M22.704447,4.48818896 C22.704447,5.29133859 22.6107238,6.04724408 22.470139,6.80314959 C22.0483846,6.66141733 21.5797685,6.80314959 21.1580141,7.13385828 L21.1580141,6.47244095 L21.1580141,5.95275592 C21.1111525,3.96850394 19.1429651,2.69291338 17.3153626,3.4488189 C15.7220681,4.1102362 13.6601575,4.48818896 11.4108005,4.48818896 C9.16144351,4.48818896 7.09953296,4.1102362 5.50623842,3.4488189 C3.67863589,2.69291338 1.71044853,4.01574801 1.66358693,5.95275592 L1.66358693,6.47244095 L1.66358693,7.13385828 C1.19497089,6.80314959 0.726354859,6.66141733 0.351462028,6.80314959 C0.210877217,6.04724408 0.117154009,5.29133859 0.117154009,4.48818896 C0.117154009,3.4015748 0.257738821,2.31496063 0.585770046,1.32283465 C0.63263165,1.22834646 0.63263165,1.08661417 0.679493255,0.992125986 C3.72549749,0.377952756 7.4744258,0.0472440946 11.4576621,0.0472440946 C15.4408984,0.0472440946 19.1429651,0.377952756 22.235831,0.992125986 C22.2826926,1.08661417 22.2826926,1.22834646 22.3295542,1.32283465 C22.5170006,2.31496063 22.704447,3.4015748 22.704447,4.48818896 Z"></path>
                                                </g>
                                                <g transform="translate(20.384798, 35.196850)" id="Shape" fill="#FFD05B">
                                                    <path d="M18.088579,0.188976378 C16.8701773,2.17322835 13.0743874,2.64566929 10.9187537,2.74015748 C10.0283832,2.78740157 9.37232075,3.49606299 9.37232075,4.39370077 L9.37232075,6.04724408 C14.667682,6.04724408 17.6668246,4.39370077 18.5571951,3.07086614 L18.088579,0.188976378 Z"></path>
                                                    <path d="M0.562339246,0.0472440946 C1.78074094,2.03149606 5.57653084,2.50393701 7.73216463,2.5984252 C8.62253509,2.64566929 9.27859755,3.35433071 9.27859755,4.25196851 L9.27859755,6 C3.9832363,5.95275592 0.98409368,4.3464567 0.0937232075,2.92913386 L0.562339246,0.0472440946 Z"></path>
                                                </g>
                                                <path d="M28.2106854,41.1968503 L29.6165336,41.1968503 L28.2106854,41.1968503 Z" id="Shape" fill="#F1543F"></path>
                                                <g transform="translate(9.255167, 38.267717)" fill="#FFD05B">
                                                    <path d="M29.6868259,0 C29.6868259,0 38.1687762,2.45669291 40.933611,6.89763778 C40.933611,6.89763778 31.1863973,4.77165353 29.6868259,0 Z" id="Shape"></path>
                                                    <path d="M11.3170773,0 C11.3170773,0 2.83512702,2.45669291 0.0702924055,6.89763778 C0.0702924055,6.89763778 9.81750597,4.77165353 11.3170773,0 Z" id="Shape"></path>
                                                    <ellipse id="Oval" cx="22.235831" cy="6.33070865" rx="1.17154009" ry="1.18110236"></ellipse>
                                                    <ellipse id="Oval" cx="22.235831" cy="10.8661417" rx="1.17154009" ry="1.18110236"></ellipse>
                                                    <ellipse id="Oval" cx="22.235831" cy="15.4488189" rx="1.17154009" ry="1.18110236"></ellipse>
                                                </g>
                                                <rect id="Rectangle-path" fill="#FF7058" x="36.3177429" y="49.1338584" width="8.57567347" height="2.26771653"></rect>
                                                <path d="M41.0507648,16.1574803 C33.6466315,13.984252 25.8207436,13.984252 18.4166103,16.1574803 C18.8383647,13.2755905 19.2132575,10.4409449 19.635012,7.55905511 C19.7755968,6.61417322 20.4785208,5.85826773 21.4157529,5.71653543 C26.8985605,4.77165353 32.5688146,4.77165353 38.051622,5.71653543 C38.9888541,5.85826773 39.6917783,6.61417322 39.832363,7.55905511 C40.2541178,10.4409449 40.6758722,13.3228347 41.0507648,16.1574803 Z" id="Shape" fill="#F1543F"></path>
                                                <g transform="translate(18.744642, 7.913386)" id="Shape" fill="#FFD05B">
                                                    <path d="M22.0249537,5.97637796 C14.8551284,3.9448819 7.21668696,3.9448819 0.0468616038,5.97637796 C0.140584811,5.40944882 0.187446415,4.84251968 0.281169622,4.27559054 C7.31041017,2.33858268 14.7614052,2.33858268 21.7906457,4.27559054 C21.8375073,4.84251968 21.9312305,5.40944882 22.0249537,5.97637796 Z"></path>
                                                    <path d="M21.6031993,3.04724409 C14.667682,1.15748032 7.3572718,1.15748032 0.421754434,3.04724409 C0.515477642,2.48031496 0.562339246,1.91338583 0.656062451,1.34645669 C7.40413338,-0.448818896 14.5739588,-0.448818896 21.3220297,1.34645669 C21.4157529,1.91338583 21.5094761,2.48031496 21.6031993,3.04724409 Z"></path>
                                                </g>
                                            </g>
                                        </g>
                                    </g>
                                </g>
                            </g>
                        </g>
                    </g>
                </g>
                <text id="Local-tips" font-family="HelveticaNeue, Helvetica Neue" font-size="8" font-weight="normal" letter-spacing="1.01538467" fill="#FFFFFF">
                    <tspan x="284" y="281">Local tips</tspan>
                </text>
                <text id="Talk-With-Andy" font-family="HelveticaNeue, Helvetica Neue" font-size="8" font-weight="normal" letter-spacing="1.01538467" fill="#FFFFFF">
                    <tspan x="155" y="281">Talk With Andy</tspan>
                </text>
                <g id="map-pin" transform="translate(297.000000, 250.000000)" stroke-linecap="round" stroke-width="2" stroke="#FFFFFF" stroke-linejoin="round">
                    <g id="Group">
                        <path d="M16,8.18181818 C16,14.5454545 8,20 8,20 C8,20 0,14.5454545 0,8.18181818 C6.58374728e-08,3.66312482 3.58172205,1.2191856e-07 8,1.21918561e-07 C12.418278,1.21918561e-07 15.9999999,3.66312482 16,8.18181818 L16,8.18181818 Z" id="Shape"></path>
                        <ellipse id="Oval" cx="8" cy="8.18181818" rx="2.66666667" ry="2.72727273"></ellipse>
                    </g>
                </g>
                <text id="Services" font-family="HelveticaNeue, Helvetica Neue" font-size="8" font-weight="normal" letter-spacing="1.01538467" fill="#FFFFFF">
                    <tspan x="57" y="282">Services</tspan>
                </text>
                <g id="list" transform="translate(70.000000, 257.000000)" stroke-linecap="round" stroke-width="2" stroke="#FFFFFF">
                    <g id="Group">
                        <path d="M0,0 L13,0" id="Shape"></path>
                        <path d="M0,6 L13,6" id="Shape"></path>
                        <path d="M0,12 L13,12" id="Shape"></path>
                    </g>
                </g>
                <circle id="Oval-2" fill="#FFFFFF" cx="65" cy="269" r="1"></circle>
                <circle id="Oval-2" fill="#FFFFFF" cx="65" cy="263" r="1"></circle>
                <circle id="Oval-2" fill="#FFFFFF" cx="65" cy="257" r="1"></circle>
                <path d="M66,168.903344 C51.7119445,186.916548 50,189.945154 50,195.999321 C50,202.053488 53.1944532,222.903344 53.1944532,222.903344 L48.6369907,219.309596" id="Path-3" stroke="#DADADA"></path>
                <path d="M281.477772,55 C308.266128,76.0293091 326.477772,103.358071 326.477772,126.823959 C326.477772,150.289848 303.977772,227.352906 303.977772,227.352906 L299.223668,211.70008" id="Path-4" stroke="#DADADA"></path>
                <path d="M163,306 C150.788807,321.735169 142.201343,333 149.962966,336.496704 C157.724589,339.993408 162.775003,360 162.775003,360 L155.930496,358.366809" id="Path-5" stroke="#DADADA" transform="translate(155.000000, 333.000000) scale(1, -1) translate(-155.000000, -333.000000) "></path>
                <text id="Use-the-services-tab" font-family="HelveticaNeue, Helvetica Neue" font-size="16" font-weight="normal" letter-spacing="1.35384619" fill="#FFFFFF">
                    <tspan x="77" y="116">Use the services tab</tspan>
                    <tspan x="77" y="134">to browse the services</tspan>
                    <tspan x="77" y="152">that we offer</tspan>
                </text>
                <text id="Use-the-Local-tips-t" font-family="HelveticaNeue, Helvetica Neue" font-size="16" font-weight="normal" letter-spacing="1.35384619" fill="#FFFFFF">
                    <tspan x="122" y="15">Use the Local tips tab</tspan>
                    <tspan x="122" y="33">to find interesting locations </tspan>
                    <tspan x="122" y="51">nearby </tspan>
                </text>
                <text id="Talk-with-me-anytime" font-family="HelveticaNeue, Helvetica Neue" font-size="16" font-weight="normal" letter-spacing="1.35384619" fill="#FFFFFF">
                    <tspan x="153" y="394">Talk with me anytime</tspan>
                    <tspan x="153" y="412">you want and I will help </tspan>
                    <tspan x="153" y="430">you navigate</tspan>
                </text>
            </g>
        </g>
    </g>
</svg>